<svg width="1626" height="1015" xmlns="http://www.w3.org/2000/svg" xmlns:xlink="http://www.w3.org/1999/xlink" xml:space="preserve" overflow="hidden"><defs><clipPath id="clip0"><rect x="1406" y="718" width="1626" height="1015"/></clipPath></defs><g clip-path="url(#clip0)" transform="translate(-1406 -718)"><path d="M1441.49 1278.77C1432.47 1267.47 1423.84 1257.41 1416.3 1246.6 1402.24 1226.46 1402.55 1218.18 1417.39 1199.67 1482.57 1118.42 1553.88 1042.81 1632.46 974.532 1716.81 901.243 1808.26 838.046 1909.93 790.468 1974.54 760.239 2041.51 736.201 2111.91 725.934 2160.36 718.869 2210.2 716.671 2259.14 718.75 2345.78 722.427 2428.3 746.29 2507.62 781.204 2599.12 821.483 2683.3 873.909 2759.33 938.442 2814.88 985.587 2869.06 1034.65 2920.57 1086.14 2957.53 1123.08 2989.47 1165.1 3022.85 1205.53 3036.39 1221.93 3035.17 1234.97 3017.42 1254.42 2958.67 1318.77 2901.65 1384.98 2839.26 1445.63 2767.04 1515.84 2685.26 1575.05 2597.62 1624.89 2513.07 1672.97 2423.4 1710.33 2326.67 1724.64 2275.97 1732.14 2223.62 1734.86 2172.51 1731.71 2089.22 1726.59 2009.41 1704.61 1932.5 1670.46 1852.73 1635.04 1778.98 1590.3 1709.13 1538.73 1632.54 1482.18 1565.25 1415.2 1499.46 1346.79 1479.14 1325.66 1461.33 1302.11 1441.49 1278.77M2957.74 1192.15C2953.6 1188.05 2949.26 1184.13 2945.34 1179.82 2911.04 1142.15 2879.52 1101.44 2841.94 1067.4 2786.55 1017.24 2728.1 970.203 2668.69 924.798 2598.11 870.854 2519.92 829.434 2436.44 798.95 2380.31 778.45 2322.16 764.036 2262.43 760.376 2194.15 756.194 2126.61 762.692 2060.03 780.623 1997.67 797.417 1938.4 821.91 1882.09 852.289 1837.88 876.134 1795.56 904.449 1755.64 935.009 1699.94 977.65 1646.28 1023.12 1593.68 1069.57 1564.3 1095.52 1538.27 1125.39 1511.81 1154.48 1490.99 1177.36 1471.83 1201.75 1449.83 1227.97 1502.28 1283.83 1553.38 1339.06 1605.52 1393.29 1621.85 1410.28 1640.4 1425.31 1658.96 1439.95 1703.61 1475.14 1748.09 1510.62 1794.06 1544.02 1847.64 1582.94 1906.42 1612.82 1967.47 1638.56 2033.52 1666.41 2102.04 1685.66 2173.23 1689.77 2221.49 1692.55 2270.95 1690.23 2318.71 1682.76 2418.43 1667.13 2510.27 1627.61 2595.51 1574.46 2647.47 1542.06 2697.87 1506.64 2745.95 1468.74 2788.28 1435.37 2827.73 1398.01 2866 1359.94 2901.21 1324.92 2932.85 1286.33 2966.65 1249.86 2986.83 1228.08 2987.29 1228.59 2968.65 1206.42 2965.33 1202.48 2962.55 1198.09 2957.74 1192.15Z" fill="#B94D51" fill-rule="evenodd"/><path d="M2473.68 1514.87C2419.54 1560.35 2359.71 1590.43 2290.85 1603.66 2205.59 1620.04 2123.93 1608.95 2047.27 1570.96 1952.93 1524.2 1885.71 1449.78 1853.19 1349.38 1819.24 1244.52 1824.88 1140.44 1878.87 1041.98 1913.13 979.491 1960.9 929.508 2022.43 892.928 2094.74 849.93 2173.86 832.412 2256.32 841.21 2368.12 853.136 2459.99 904.022 2528.08 995.883 2565.12 1045.84 2590.06 1100.85 2599.63 1161.56 2611.5 1236.85 2604.27 1310.7 2572.05 1381.19 2548.67 1432.35 2515.83 1476.17 2473.68 1514.87M2164.2 951.52C2147.61 958.568 2130.02 963.929 2114.58 972.961 2045.65 1013.31 2002.98 1070.58 2009.94 1153.89 2011.88 1177.14 2004.47 1192.48 1991.38 1208.71 1979.36 1223.62 1967.09 1238.78 1958.07 1255.52 1948.49 1273.28 1956.38 1286.36 1975.55 1290.19 2000.57 1295.18 2002.83 1297.34 2001.85 1323.07 2001.06 1344 1997.5 1364.87 1997.52 1385.77 1997.54 1413.86 2013.85 1431.91 2041.78 1435.14 2057.86 1437 2074.34 1436.33 2090.58 1435.59 2116.97 1434.4 2117.11 1434.15 2114.5 1460.44 2111.31 1492.62 2119.84 1507 2151.68 1509.12 2207.38 1512.84 2263.34 1514.01 2319.18 1513.59 2340.87 1513.42 2362.97 1507.58 2384.03 1501.42 2401.26 1496.37 2404.31 1486.87 2397.65 1470.2 2366.68 1392.67 2381.42 1324.56 2434.34 1260.52 2524.84 1150.99 2479.86 1039.21 2391.7 981.748 2322.3 936.518 2246.29 928.588 2164.2 951.52Z" fill="#B94D51" fill-rule="evenodd"/><path d="M2165.58 951.126C2246.36 928.657 2322.39 936.59 2391.8 981.841 2479.97 1039.32 2524.96 1151.15 2434.44 1260.73 2381.52 1324.8 2366.77 1392.95 2397.75 1470.51 2404.41 1487.19 2401.36 1496.69 2384.12 1501.74 2363.06 1507.91 2340.95 1513.75 2319.26 1513.92 2263.41 1514.34 2207.44 1513.17 2151.73 1509.45 2119.88 1507.32 2111.35 1492.94 2114.54 1460.74 2117.16 1434.45 2117.01 1434.7 2090.62 1435.89 2074.37 1436.63 2057.89 1437.3 2041.81 1435.44 2013.87 1432.2 1997.56 1414.15 1997.54 1386.04 1997.52 1365.14 2001.08 1344.25 2001.87 1323.31 2002.85 1297.57 2000.59 1295.41 1975.56 1290.42 1956.39 1286.59 1948.5 1273.5 1958.08 1255.74 1967.11 1238.99 1979.38 1223.82 1991.4 1208.9 2004.49 1192.66 2011.9 1177.32 2009.96 1154.06 2003 1070.71 2045.68 1013.42 2114.62 973.05 2130.06 964.014 2147.65 958.65 2165.58 951.126M2063.92 1412.4C2077.9 1411.73 2091.88 1410.42 2105.86 1410.54 2130.97 1410.76 2143.08 1424.37 2141.43 1449.57 2141.09 1454.8 2140.26 1460.01 2139.31 1465.17 2137.03 1477.51 2141.64 1484.38 2154.54 1484.78 2205.72 1486.37 2256.89 1488.82 2308.08 1489.08 2329.62 1489.19 2351.19 1484.62 2374.59 1481.98 2353.98 1428.48 2349.88 1378.35 2366.45 1327.38 2376.73 1295.74 2395.52 1269.52 2416.17 1243.82 2483.01 1160.65 2468.54 1065.68 2380.84 1004.84 2296 945.99 2168.61 952.67 2090.76 1020.57 2050.61 1055.59 2027.28 1099.65 2034.94 1153.4 2039.1 1182.62 2029.45 1202.91 2012.21 1223.08 2001.74 1235.34 1991.95 1248.18 1979.57 1263.6 2023.85 1269.13 2028.82 1297.88 2026.74 1330.78 2025.89 1344.15 2023.8 1357.43 2022.92 1370.8 2020.71 1404.24 2026.36 1410.32 2063.92 1412.4Z" fill="#DFC8C9" fill-rule="evenodd"/><path d="M2062.62 1412.41C2026.75 1410.29 2021.11 1404.2 2023.31 1370.79 2024.19 1357.43 2026.28 1344.14 2027.13 1330.78 2029.21 1297.9 2024.24 1269.17 1980 1263.64 1992.37 1248.23 2002.15 1235.39 2012.62 1223.14 2029.84 1202.98 2039.48 1182.7 2035.32 1153.5 2027.67 1099.77 2050.98 1055.74 2091.1 1020.74 2168.88 952.874 2296.18 946.198 2380.94 1005.02 2468.57 1065.82 2483.03 1160.74 2416.25 1243.87 2395.62 1269.56 2376.84 1295.77 2366.56 1327.39 2350.01 1378.33 2354.1 1428.43 2374.7 1481.9 2351.31 1484.55 2329.76 1489.11 2308.24 1489 2257.1 1488.74 2205.97 1486.29 2154.83 1484.7 2141.94 1484.3 2137.33 1477.44 2139.61 1465.1 2140.55 1459.95 2141.38 1454.74 2141.73 1449.52 2143.38 1424.33 2131.28 1410.72 2106.18 1410.5 2092.22 1410.38 2078.24 1411.69 2062.62 1412.41M2110.71 1132C2103.32 1144.64 2109.31 1150.41 2121.58 1151.79 2128.98 1152.62 2137.01 1153.32 2143.92 1151.28 2148.75 1149.85 2152.16 1143.67 2156.2 1139.6 2152 1135.64 2148.11 1128.82 2143.52 1128.31 2133.5 1127.19 2123.12 1129.29 2110.71 1132Z" fill="#B94E51" fill-rule="evenodd"/><path d="M2111.94 1130.97C2123.17 1129.27 2133.47 1127.22 2143.41 1128.3 2147.96 1128.8 2151.82 1135.46 2156 1139.32 2151.99 1143.28 2148.6 1149.31 2143.81 1150.7 2136.95 1152.69 2128.99 1152.01 2121.64 1151.19 2109.46 1149.85 2103.52 1144.23 2111.94 1130.97Z" fill="#DFCACB" fill-rule="evenodd"/></g></svg>