<?xml version="1.0" encoding="UTF-8"?>
<!DOCTYPE svg PUBLIC "-//W3C//DTD SVG 1.1//EN" "http://www.w3.org/Graphics/SVG/1.1/DTD/svg11.dtd">
<svg xmlns="http://www.w3.org/2000/svg" version="1.1" width="500px" height="500px" style="shape-rendering:geometricPrecision; text-rendering:geometricPrecision; image-rendering:optimizeQuality; fill-rule:evenodd; clip-rule:evenodd" xmlns:xlink="http://www.w3.org/1999/xlink">
<g><path style="opacity:0.954" fill="#b94d50" d="M 235.5,104.5 C 280.459,102.766 322.125,113.599 360.5,137C 405.187,164.674 444.021,199.174 477,240.5C 482.511,245.886 482.844,251.553 478,257.5C 325.69,440.166 173.356,440.166 21,257.5C 19.2467,254.995 17.7467,252.329 16.5,249.5C 50.9095,200.993 93.9095,162.16 145.5,133C 173.694,117.322 203.694,107.822 235.5,104.5 Z M 233.5,116.5 C 274.93,114.691 313.596,124.191 349.5,145C 395.809,172.345 435.476,207.345 468.5,250C 436.808,289.694 399.475,323.027 356.5,350C 289.614,391.09 221.614,393.09 152.5,356C 105.251,328.183 64.5847,292.683 30.5,249.5C 64.2803,205.872 104.947,170.372 152.5,143C 177.926,129.067 204.926,120.233 233.5,116.5 Z"/></g>
<g><path style="opacity:0.991" fill="#b94d51" d="M 236.5,139.5 C 286.062,136.859 323.229,156.859 348,199.5C 370.079,251.446 360.579,296.613 319.5,335C 281.324,363.115 240.657,367.115 197.5,347C 150.986,318.782 132.486,277.615 142,223.5C 153.218,183.618 178.385,157.118 217.5,144C 223.95,142.415 230.283,140.915 236.5,139.5 Z"/></g>
<g><path style="opacity:1" fill="#dec7c8" d="M 247.5,167.5 C 273.968,165.484 296.135,174.151 314,193.5C 326.79,212.169 327.79,231.502 317,251.5C 309.823,259.684 303.823,268.684 299,278.5C 295.839,286.909 294.839,295.576 296,304.5C 297.603,310.749 299.437,316.916 301.5,323C 300.885,326.282 298.885,328.282 295.5,329C 283.176,331.915 270.676,333.082 258,332.5C 250.833,332.333 243.667,332.167 236.5,332C 232.032,331.507 227.698,330.507 223.5,329C 221.513,327.681 220.346,325.848 220,323.5C 219.983,318.91 219.817,314.41 219.5,310C 213.176,310.18 206.843,310.18 200.5,310C 193.962,309.654 189.462,306.487 187,300.5C 186.742,290.824 186.742,281.157 187,271.5C 186.626,270.584 186.126,269.75 185.5,269C 175.037,269.24 171.87,264.74 176,255.5C 180.667,249.5 185.333,243.5 190,237.5C 186.294,212.275 195.127,192.775 216.5,179C 226.245,173.163 236.578,169.33 247.5,167.5 Z"/></g>
<g><path style="opacity:1" fill="#b94d51" d="M 243.5,175.5 C 268.837,172 290.337,179.334 308,197.5C 319.539,213.453 320.539,230.12 311,247.5C 306.909,253.347 302.576,259.013 298,264.5C 287.018,283.066 285.518,302.399 293.5,322.5C 271.511,326.124 249.511,326.29 227.5,323C 227.103,318.25 226.936,313.417 227,308.5C 226.215,306.714 225.049,305.214 223.5,304C 214.935,302.725 206.268,302.058 197.5,302C 196.069,301.535 194.903,300.701 194,299.5C 194.156,289.505 194.156,279.505 194,269.5C 191.89,263.691 187.724,260.691 181.5,260.5C 185.094,254.737 189.261,249.404 194,244.5C 195,242.5 196,240.5 197,238.5C 193.325,210.507 204.492,191.007 230.5,180C 234.98,178.564 239.313,177.064 243.5,175.5 Z"/></g>
<g><path style="opacity:1" fill="#dfc8c9" d="M 218.5,221.5 C 222.182,221.335 225.848,221.501 229.5,222C 232.167,224 232.167,226 229.5,228C 225.833,228.667 222.167,228.667 218.5,228C 217.395,225.88 217.395,223.713 218.5,221.5 Z"/></g>
</svg>
